<svg width="88" height="88" viewBox="0 0 88 88" fill="none" xmlns="http://www.w3.org/2000/svg">
<g clip-path="url(#clip0_1_8)">
<path opacity="0.1" d="M44 88C68.3005 88 88 68.3005 88 44C88 19.6995 68.3005 0 44 0C19.6995 0 0 19.6995 0 44C0 68.3005 19.6995 88 44 88Z" fill="#8FA632"/>
<g clip-path="url(#clip1_1_8)">
<path d="M25.9426 27.136C25.52 26.2625 25.8854 25.2118 26.759 24.7893C27.0441 24.6514 27.3477 24.5988 27.6426 24.619C27.9207 24.0007 28.409 23.4729 29.0669 23.1546C30.5541 22.4351 32.3431 23.0575 33.0627 24.5447C33.2366 24.9042 33.3315 25.2813 33.3552 25.6566C34.0191 25.6345 34.6652 25.9961 34.9732 26.6325C35.3898 27.4936 35.0296 28.5292 34.1684 28.9459C33.3864 29.3242 32.4619 29.0602 31.9864 28.3638C31.8865 28.4279 31.7822 28.4873 31.6727 28.5404C30.4969 29.1092 29.133 28.8388 28.2575 27.9658C27.3905 28.3647 26.3602 27.9989 25.9426 27.136Z" fill="url(#paint0_linear_1_8)"/>
<path d="M26.3844 23.9367C27.1953 23.9367 27.8528 23.2793 27.8528 22.4684C27.8528 21.6574 27.1953 21 26.3844 21C25.5734 21 24.916 21.6574 24.916 22.4684C24.916 23.2793 25.5734 23.9367 26.3844 23.9367Z" fill="url(#paint1_linear_1_8)"/>
<path d="M35.1075 35.7783H31.566C31.0649 35.7783 30.6586 35.372 30.6586 34.8708V29.222C30.6586 28.7208 31.0649 28.3146 31.566 28.3146H35.1075C35.6087 28.3146 36.0149 28.7208 36.0149 29.222V34.8708C36.015 35.372 35.6088 35.7783 35.1075 35.7783Z" fill="url(#paint2_linear_1_8)"/>
<path d="M33.9855 51.885H23.4101V65.4568H33.9855V51.885Z" fill="url(#paint3_linear_1_8)"/>
<path d="M34.4261 54.7929H23.4338C22.9834 54.7929 22.6609 54.358 22.7916 53.9269L23.8824 50.3338C23.9683 50.051 24.229 49.8578 24.5246 49.8578H34.4262L34.4261 54.7929Z" fill="url(#paint4_linear_1_8)"/>
<path d="M65.5355 51.885H54.9601V65.4568H65.5355V51.885Z" fill="url(#paint5_linear_1_8)"/>
<path d="M65.5354 61.901L58.4301 54.7955H54.9601V65.4565H65.5354V61.901Z" fill="url(#paint6_linear_1_8)"/>
<path d="M54.5194 54.7929H65.5117C65.9621 54.7929 66.2846 54.358 66.1539 53.9269L65.0631 50.3338C64.9772 50.051 64.7165 49.8578 64.4209 49.8578H54.5194V54.7929Z" fill="url(#paint7_linear_1_8)"/>
<path d="M58.4358 37.3768V65.4562H30.5132V37.3768L44.4727 23.6904L58.4358 37.3768Z" fill="url(#paint8_linear_1_8)"/>
<path d="M30.5132 37.3768V38.9855L56.9839 65.4562H58.4358V37.3768L44.4727 23.6904L30.5132 37.3768Z" fill="url(#paint9_linear_1_8)"/>
<path d="M58.4358 45.863V65.4565H49.6203L30.5132 46.3494V45.863H58.4358Z" fill="url(#paint10_linear_1_8)"/>
<path d="M54.1214 65.4564H40.4653L32.9585 57.9497C32.628 57.7354 32.4081 57.3636 32.4081 56.9419V50.9001C32.4081 50.2382 32.947 49.6993 33.6089 49.6993H37.9647C38.3874 49.6993 38.7592 49.9193 38.9734 50.2497L38.9408 50.2756L54.1214 65.4564Z" fill="url(#paint11_linear_1_8)"/>
<path d="M37.9647 57.4388H33.6093C33.3346 57.4388 33.112 57.2162 33.112 56.9415V50.9006C33.112 50.6259 33.3347 50.4033 33.6093 50.4033H37.9647C38.2394 50.4033 38.462 50.626 38.462 50.9006V56.9415C38.4621 57.2162 38.2394 57.4388 37.9647 57.4388Z" fill="#503837"/>
<path d="M37.9647 58.1428H33.6093C32.947 58.1428 32.4081 57.6039 32.4081 56.9416V50.9007C32.4081 50.2384 32.947 49.6995 33.6093 49.6995H37.9647C38.627 49.6995 39.1659 50.2384 39.1659 50.9007V56.9416C39.166 57.6039 38.6271 58.1428 37.9647 58.1428ZM33.816 56.7348H37.7581V51.1073H33.816V56.7348Z" fill="white"/>
<path d="M58.4368 52.1914V65.4564H58.0083L50.5015 57.9497C50.17 57.7354 49.95 57.3636 49.95 56.9419V50.9001C49.95 50.2382 50.489 49.6993 51.1518 49.6993H55.5066C55.9293 49.6993 56.3011 49.9193 56.5153 50.2497L56.5326 50.2633L56.521 50.2758L58.4368 52.1914Z" fill="url(#paint12_linear_1_8)"/>
<path d="M55.507 57.4388H51.1516C50.8769 57.4388 50.6543 57.2162 50.6543 56.9415V50.9006C50.6543 50.6259 50.8769 50.4033 51.1516 50.4033H55.507C55.7817 50.4033 56.0043 50.626 56.0043 50.9006V56.9415C56.0044 57.2162 55.7817 57.4388 55.507 57.4388Z" fill="#503837"/>
<path d="M55.507 58.1428H51.1516C50.4893 58.1428 49.9504 57.6039 49.9504 56.9416V50.9007C49.9504 50.2384 50.4893 49.6995 51.1516 49.6995H55.507C56.1694 49.6995 56.7083 50.2384 56.7083 50.9007V56.9416C56.7083 57.6039 56.1694 58.1428 55.507 58.1428ZM51.3582 56.7348H55.3002V51.1073H51.3582V56.7348Z" fill="white"/>
<path d="M41.5651 65.4561V50.2019C41.5651 49.529 42.1105 48.9836 42.7833 48.9836H46.1662C46.839 48.9836 47.3845 49.529 47.3845 50.2019V65.4561H41.5651Z" fill="#816965"/>
<path d="M48.1049 65.4561H46.6638V50.6173C46.6638 50.1152 46.253 49.7042 45.7508 49.7042H43.1986C42.6943 49.7042 42.2855 50.113 42.2855 50.6173V65.4561H40.8445V49.6643C40.8445 48.8905 41.4718 48.2632 42.2457 48.2632H46.7037C47.4775 48.2632 48.1048 48.8905 48.1048 49.6643L48.1049 65.4561Z" fill="#503837"/>
<path d="M43.4425 55.3664C43.8054 55.3664 44.0995 55.0723 44.0995 54.7095C44.0995 54.3466 43.8054 54.0525 43.4425 54.0525C43.0797 54.0525 42.7856 54.3466 42.7856 54.7095C42.7856 55.0723 43.0797 55.3664 43.4425 55.3664Z" fill="white"/>
<path d="M58.4368 61.6117H30.5124V65.4559H58.4368V61.6117Z" fill="#654E48"/>
<path d="M30.2066 63.9539C30.2066 64.4844 30.1063 64.9907 29.923 65.456H22.2836C22.1003 64.9907 22 64.4844 22 63.9539C22 63.4373 22.0952 62.9434 22.2697 62.4884C22.8595 60.9453 24.3536 59.8506 26.1034 59.8506C27.8532 59.8506 29.3472 60.9453 29.9371 62.4884C30.1114 62.9435 30.2066 63.4374 30.2066 63.9539Z" fill="url(#paint13_linear_1_8)"/>
<path d="M32.8526 64.3665C32.8526 64.7513 32.7798 65.1185 32.6469 65.4561H27.1052C26.9723 65.1186 26.8995 64.7513 26.8995 64.3665C26.8995 63.9917 26.9686 63.6335 27.0952 63.3034C27.523 62.184 28.6068 61.3899 29.8762 61.3899C31.1455 61.3899 32.2293 62.184 32.6572 63.3034C32.7835 63.6334 32.8526 63.9917 32.8526 64.3665Z" fill="url(#paint14_linear_1_8)"/>
<path d="M66.9455 63.7051C66.9455 64.3235 66.8285 64.9137 66.6149 65.4561H57.7097C57.4962 64.9138 57.3791 64.3235 57.3791 63.7051C57.3791 63.1029 57.4902 62.5273 57.6935 61.9968C58.3811 60.198 60.1226 58.9219 62.1623 58.9219C64.202 58.9219 65.9435 60.198 66.6311 61.9968C66.8344 62.5273 66.9455 63.1029 66.9455 63.7051Z" fill="url(#paint15_linear_1_8)"/>
<path d="M58.4358 41.3937V56.2759L40.4744 38.3136C40.1218 38.1013 39.8848 37.7161 39.8848 37.2755V33.901C39.8848 31.3717 41.9435 29.314 44.4728 29.314C45.8423 29.314 47.0734 29.9185 47.915 30.8729L58.4358 41.3937Z" fill="url(#paint16_linear_1_8)"/>
<path d="M56.3894 39.9458H32.9179C32.3582 39.9458 31.9029 40.4011 31.9029 40.9608V45.467H32.6079V40.9608C32.6079 40.7898 32.747 40.6508 32.9179 40.6508H34.3219V45.4669H35.0269V40.6508H37.1213V45.4669H37.8263V40.6508H39.9208V45.4669H40.6258V40.6508H42.7202V45.4669H43.4252V40.6508H45.5197V45.4669H46.2247V40.6508H48.3192V45.4669H49.0242V40.6508H51.1186V45.4669H51.8236V40.6508H53.9181V45.4669H54.6231V40.6508H56.3891C56.56 40.6508 56.6991 40.7898 56.6991 40.9608V45.467H57.4041V40.9608C57.4044 40.4011 56.9491 39.9458 56.3894 39.9458Z" fill="#654E48"/>
<path d="M59.0145 44.7355V46.9959C59.0145 47.3318 58.7422 47.6042 58.4063 47.6042H30.5392C30.2032 47.6042 29.9309 47.3318 29.9309 46.9959V44.7355C29.9309 44.3995 30.2032 44.1272 30.5392 44.1272H58.4063C58.7422 44.1272 59.0145 44.3995 59.0145 44.7355Z" fill="url(#paint17_linear_1_8)"/>
<path d="M63.435 39.8248L45.4056 21.7893C44.8917 21.2755 44.0584 21.2755 43.5445 21.7893L25.5105 39.8233C25.1743 40.1595 25.1743 40.7046 25.5105 41.0408L26.279 41.8093C26.6153 42.1455 27.1603 42.1455 27.4965 41.8093L44.2299 25.0759C44.3652 24.9406 44.5846 24.9406 44.7199 25.0759L61.4489 41.8107C61.7851 42.1469 62.3302 42.1469 62.6664 41.8107L63.4349 41.0422C63.7712 40.7061 63.7712 40.161 63.435 39.8248Z" fill="url(#paint18_linear_1_8)"/>
<path d="M45.4055 21.7893C45.1486 21.5324 44.8119 21.4039 44.475 21.4039V24.9745C44.5637 24.9745 44.6524 25.0084 44.72 25.076L61.449 41.8109C61.7852 42.1471 62.3303 42.1471 62.6665 41.8109L63.435 41.0423C63.7712 40.7061 63.7712 40.161 63.435 39.8248L45.4055 21.7893Z" fill="url(#paint19_linear_1_8)"/>
<path d="M47.8466 37.7568H41.099C40.833 37.7568 40.6174 37.5411 40.6174 37.2752V33.9013C40.6174 31.772 42.3436 30.0458 44.4729 30.0458C46.6023 30.0458 48.3285 31.772 48.3285 33.9013V37.2752C48.3283 37.5411 48.1126 37.7568 47.8466 37.7568Z" fill="#654E48"/>
<path d="M44.4728 29.3137C41.9432 29.3137 39.8853 31.3717 39.8853 33.9012V37.275C39.8853 37.9443 40.4297 38.4887 41.099 38.4887H47.8466C48.5159 38.4887 49.0604 37.9443 49.0604 37.275V33.9012C49.0603 31.3716 47.0024 29.3137 44.4728 29.3137ZM47.5709 33.5109H45.2049V30.8653C46.4516 31.1661 47.4087 32.2163 47.5709 33.5109ZM43.7406 30.8653V33.5109H41.3746C41.5368 32.2163 42.4938 31.1661 43.7406 30.8653ZM41.3493 34.975H43.7406V37.0248H41.3493V34.975ZM45.2049 37.0248V34.975H47.5962V37.0248H45.2049Z" fill="white"/>
</g>
</g>
<defs>
<linearGradient id="paint0_linear_1_8" x1="24.2445" y1="23.8202" x2="41.5359" y2="29.8359" gradientUnits="userSpaceOnUse">
<stop stop-color="#E2EDF2"/>
<stop offset="1" stop-color="#9FC7E2"/>
</linearGradient>
<linearGradient id="paint1_linear_1_8" x1="25.9081" y1="22.3036" x2="28.454" y2="23.1896" gradientUnits="userSpaceOnUse">
<stop stop-color="#E2EDF2"/>
<stop offset="1" stop-color="#9FC7E2"/>
</linearGradient>
<linearGradient id="paint2_linear_1_8" x1="31.9019" y1="30.6132" x2="33.6786" y2="32.389" gradientUnits="userSpaceOnUse">
<stop stop-color="#816965"/>
<stop offset="1" stop-color="#654E48"/>
</linearGradient>
<linearGradient id="paint3_linear_1_8" x1="28.6976" y1="53.6047" x2="28.6976" y2="65.6569" gradientUnits="userSpaceOnUse">
<stop stop-color="#FFE7A5"/>
<stop offset="0.966" stop-color="#FFBF5C"/>
</linearGradient>
<linearGradient id="paint4_linear_1_8" x1="28.5941" y1="50.4831" x2="28.5941" y2="54.8665" gradientUnits="userSpaceOnUse">
<stop stop-color="#FF5D00"/>
<stop offset="1" stop-color="#D54003"/>
</linearGradient>
<linearGradient id="paint5_linear_1_8" x1="60.2469" y1="53.6047" x2="60.2469" y2="65.6569" gradientUnits="userSpaceOnUse">
<stop stop-color="#FFE7A5"/>
<stop offset="0.966" stop-color="#FFBF5C"/>
</linearGradient>
<linearGradient id="paint6_linear_1_8" x1="60.0001" y1="63.0721" x2="49.0381" y2="53.3033" gradientUnits="userSpaceOnUse">
<stop stop-color="#FF5D00" stop-opacity="0"/>
<stop offset="1" stop-color="#D54003"/>
</linearGradient>
<linearGradient id="paint7_linear_1_8" x1="60.3505" y1="50.4831" x2="60.3505" y2="54.8665" gradientUnits="userSpaceOnUse">
<stop stop-color="#FF5D00"/>
<stop offset="1" stop-color="#D54003"/>
</linearGradient>
<linearGradient id="paint8_linear_1_8" x1="44.474" y1="44.8633" x2="44.474" y2="74.4288" gradientUnits="userSpaceOnUse">
<stop stop-color="#FFE7A5"/>
<stop offset="0.966" stop-color="#FFBF5C"/>
<stop offset="1" stop-color="#DB9E36"/>
</linearGradient>
<linearGradient id="paint9_linear_1_8" x1="41.4565" y1="35.1642" x2="33.3735" y2="27.0812" gradientUnits="userSpaceOnUse">
<stop stop-color="#FF5D00" stop-opacity="0"/>
<stop offset="1" stop-color="#D54003"/>
</linearGradient>
<linearGradient id="paint10_linear_1_8" x1="45.5251" y1="52.6309" x2="42.3623" y2="32.9989" gradientUnits="userSpaceOnUse">
<stop stop-color="#FF5D00" stop-opacity="0"/>
<stop offset="1" stop-color="#D54003"/>
</linearGradient>
<linearGradient id="paint11_linear_1_8" x1="41.2266" y1="59.361" x2="28.6298" y2="46.7641" gradientUnits="userSpaceOnUse">
<stop stop-color="#FF5D00" stop-opacity="0"/>
<stop offset="1" stop-color="#D54003"/>
</linearGradient>
<linearGradient id="paint12_linear_1_8" x1="56.6992" y1="57.2916" x2="48.6338" y2="49.2262" gradientUnits="userSpaceOnUse">
<stop stop-color="#FF5D00" stop-opacity="0"/>
<stop offset="1" stop-color="#D54003"/>
</linearGradient>
<linearGradient id="paint13_linear_1_8" x1="23.7892" y1="61.3995" x2="28.8526" y2="66.4623" gradientUnits="userSpaceOnUse">
<stop stop-color="#9EB644"/>
<stop offset="1" stop-color="#738611"/>
</linearGradient>
<linearGradient id="paint14_linear_1_8" x1="28.1972" y1="62.5131" x2="31.8703" y2="66.1863" gradientUnits="userSpaceOnUse">
<stop stop-color="#9EB644"/>
<stop offset="1" stop-color="#738611"/>
</linearGradient>
<linearGradient id="paint15_linear_1_8" x1="59.4642" y1="60.7271" x2="65.3661" y2="66.6298" gradientUnits="userSpaceOnUse">
<stop stop-color="#9EB644"/>
<stop offset="1" stop-color="#738611"/>
</linearGradient>
<linearGradient id="paint16_linear_1_8" x1="50.8878" y1="41.3066" x2="37.9746" y2="28.3934" gradientUnits="userSpaceOnUse">
<stop stop-color="#FF5D00" stop-opacity="0"/>
<stop offset="1" stop-color="#D54003"/>
</linearGradient>
<linearGradient id="paint17_linear_1_8" x1="44.4723" y1="44.4976" x2="44.4723" y2="49.1102" gradientUnits="userSpaceOnUse">
<stop stop-color="#FF5D00"/>
<stop offset="1" stop-color="#D54003"/>
</linearGradient>
<linearGradient id="paint18_linear_1_8" x1="44.4723" y1="33.6034" x2="44.4723" y2="49.2626" gradientUnits="userSpaceOnUse">
<stop stop-color="#FF5D00"/>
<stop offset="1" stop-color="#D54003"/>
</linearGradient>
<linearGradient id="paint19_linear_1_8" x1="57.9408" y1="36.3836" x2="48.476" y2="26.919" gradientUnits="userSpaceOnUse">
<stop stop-color="#FF5D00" stop-opacity="0"/>
<stop offset="1" stop-color="#D54003"/>
</linearGradient>
<clipPath id="clip0_1_8">
<rect width="88" height="88" fill="white"/>
</clipPath>
<clipPath id="clip1_1_8">
<rect width="45" height="45" fill="white" transform="translate(22 21)"/>
</clipPath>
</defs>
</svg>
